<?xml version="1.0" encoding="UTF-8"?>
<svg id="Layer_1" data-name="Layer 1" xmlns="http://www.w3.org/2000/svg" viewBox="0 0 522.14 318.58">
  <defs>
    <style>
      .cls-1 {
        fill: #fff;
      }
    </style>
  </defs>
  <path class="cls-1" d="m.03,4.99c12.49,0,24.32.06,36.16-.04,2.85-.02,2.69,1.67,2.68,3.57-.02,14.55-.02,29.1,0,43.65.02,18.71-.35,37.43.28,56.12.32,9.66,1.66,19.44,3.91,28.84,4.41,18.39,19.37,30.18,38.32,30.79,6.18.2,12.49-.5,18.58-1.61,9.64-1.76,17.12-7.14,22.65-15.29,7.05-10.38,11.07-21.76,11.23-34.3.4-30.4.63-60.79.91-91.19.05-5.72.09-11.43-.03-17.15-.05-2.41.56-3.54,3.26-3.45,5.57.18,11.16.05,17.12.05.14,1.31.37,2.42.37,3.52-.01,33.65.24,67.3-.26,100.95-.15,10.17-1.22,20.62-3.88,30.4-5.94,21.92-21.61,35.25-42.72,41.66-22.23,6.75-44.79,5.84-66.84-1.43-23.05-7.61-36.33-23.86-39.92-47.77-1.11-7.42-1.69-14.98-1.73-22.48C-.07,76.58.03,43.32.03,10.06c0-1.53,0-3.06,0-5.07Z"/>
  <path class="cls-1" d="m520.89,182.69c-10.21,0-19.81,0-29.42,0-3.9,0-7.81-.14-11.7.05-2.52.13-3.61-.78-4.4-3.19-4.76-14.69-9.61-29.35-14.61-43.96-2.41-7.03-2.59-6.97-10.04-6.97-16.39,0-32.77.08-49.16-.07-2.97-.03-4.32.9-5.25,3.72-5.18,15.78-10.62,31.48-15.78,47.27-.8,2.44-1.87,3.26-4.36,3.2-6.88-.15-13.76-.05-21.09-.05.48-1.43.77-2.52,1.2-3.55,23.62-57.38,47.28-114.75,70.83-172.16,1.32-3.22,2.83-4.78,6.51-4.41,3.73.38,7.54.23,11.3.03,2.69-.14,4.16.65,5.23,3.33,12.93,32.44,25.99,64.82,39.02,97.22,10.17,25.3,20.32,50.6,30.48,75.9.38.94.65,1.91,1.24,3.64Zm-91.4-129c-.32-.02-.64-.03-.96-.05-7.84,19.5-15.68,39-23.64,58.79h47.06c-7.59-19.85-15.03-39.3-22.46-58.74Z"/>
  <path class="cls-1" d="m285.34,185.75c-22.41-.08-41.11-3.48-58-13.53-30.46-18.13-43.72-45.39-41.89-80.4.64-12.27,2.71-24.26,7.34-35.7,8.97-22.13,24.77-37.86,46.74-46.62,32.62-13.01,65.41-12.76,97.89,1.35,3.35,1.46,4.01,3.12,3.09,6.48-1.64,6-2.77,12.15-4.26,18.19-.37,1.49-1.32,2.84-2,4.26-1.44-.87-3.27-1.42-4.26-2.65-7.95-9.79-17.7-17.12-30.09-19.72-21.91-4.61-40.42,1.58-54.36,19.45-9.26,11.88-13.94,25.73-15.94,40.51-2.09,15.46-1.71,30.84,2.24,46.02,12.32,47.32,54.53,54.37,84.14,40.88,6.54-2.98,12.31-7.64,18.52-11.38,1.13-.68,2.68-.66,4.04-.96.18,1.25.74,2.59.48,3.74-1.2,5.31-2.41,10.65-4.1,15.82-.59,1.81-2.25,3.86-3.95,4.65-15.38,7.14-31.77,9.53-45.61,9.61Z"/>
  <path class="cls-1" d="m371.29,209.94c8.52,0,16.45-.41,24.31.13,6.06.42,10.16,4.46,12.4,10,3,7.45,2.94,15.05-.5,22.3-3.16,6.66-8.59,10.79-16.09,11.32-5.82.42-11.69.32-17.53.18-.88-.02-2.47-1.54-2.48-2.38-.16-13.73-.11-27.47-.11-41.56Zm9.06,21.75c0,5.18-.09,10.37.08,15.55.03.97.92,2.56,1.7,2.77,7.07,1.89,14.33-1.93,16.3-9,1.09-3.92,1.41-8.16,1.4-12.26-.04-10.82-5.58-15.78-16.41-15.44-2.4.08-3.16.9-3.11,3.21.12,5.05.04,10.11.04,15.16Z"/>
  <path class="cls-1" d="m482.07,210.03c8.56,0,16.78-.62,24.85.19,7.02.7,10.9,6.03,12.87,12.59,4.09,13.57-2.5,27.91-14.77,30.33-6.78,1.34-13.97.68-20.97.76-.65,0-1.89-1.17-1.89-1.8-.11-13.99-.08-27.97-.08-42.06Zm9.13,21.74c0,5.18-.09,10.36.08,15.53.03.95.97,2.51,1.76,2.71,7.34,1.83,14.44-2.1,16.35-9.46,1.02-3.94,1.3-8.19,1.19-12.28-.28-10.58-5.41-15.1-16.04-14.96-2.49.03-3.48.73-3.4,3.32.15,5.04.04,10.09.05,15.14Z"/>
  <path class="cls-1" d="m266.55,232.36c4.18,7.18,8.25,14.18,12.8,22.01-3.81,0-6.85.21-9.84-.13-.92-.1-1.89-1.59-2.46-2.65-3.09-5.67-6.06-11.39-10.01-16.96v19.56h-8.6v-44.31c6.43,0,12.78-.28,19.1.1,4.25.25,7.38,3.94,8.1,8.32.82,4.96-1.23,9.71-5.26,12.09-1.1.65-2.26,1.17-3.83,1.97Zm-9.36-2.08c3.6.59,6.42-.09,7.92-3.16,1.85-3.77,2.08-7.86-.14-11.5-1.69-2.76-4.69-2.69-7.78-2.01v16.67Z"/>
  <path class="cls-1" d="m68.65,254.04c-2.64.34-4.85,1.2-4.84-2.33.04-13.51.04-27.02.07-40.53,0-.36.21-.72.33-1.11,3.35-1.04,5.83-.35,8.17,2.53,6.89,8.46,14.07,16.69,21.15,25,.38.45.85.82,1.81,1.73v-29.36c1.78-.09,3.23-.17,4.95-.26v44.19c-3.29,1.27-5.37.08-7.43-2.44-7-8.55-14.21-16.91-21.33-25.35-.66-.78-1.24-1.62-1.86-2.44-.34.13-.68.25-1.01.38v29.99Z"/>
  <path class="cls-1" d="m271.37,305.98c3.62-7.91,6.75-15.01,10.16-21.97.65-1.33,2.4-2.12,3.64-3.16.78,1.26,2.08,2.45,2.25,3.78,1.35,10.8,2.48,21.63,3.73,32.93-1.8.08-3.44.1-5.07.24-2.25.2-2.8-.89-2.94-2.98-.4-5.96-1.03-11.9-1.61-17.85-.08-.83-.34-1.65-.74-3.52-3.39,7.66-6.33,14.41-9.38,21.11-.49,1.07-1.47,1.93-2.23,2.88-.74-.96-1.7-1.82-2.19-2.89-2.98-6.44-5.86-12.93-8.78-19.41-.35.03-.7.07-1.05.1-.73,7.36-1.45,14.73-2.19,22.2h-4.14c1.09-7.83,2.14-15.38,3.17-22.92.46-3.34.73-6.72,1.36-10.03.25-1.29,1.26-2.43,1.93-3.64,1.3.96,3.16,1.65,3.8,2.93,2.77,5.58,5.17,11.34,7.73,17.02.63,1.41,1.36,2.77,2.56,5.17Z"/>
  <path class="cls-1" d="m36.22,209.89h5.09c0,5.13.09,10.13-.02,15.13-.13,5.82.24,11.78-.91,17.42-.71,3.46-3.21,7.27-6.04,9.43-6.34,4.82-13.74,4.23-20.74,1.18-6.48-2.82-8.11-8.73-8.19-15.15-.1-9.2-.03-18.4-.03-27.93h8.96c0,7.66-.1,15.16.04,22.66.07,3.48.32,7.01.99,10.42.85,4.36,4.14,7.05,8.37,7.51,4.79.52,8.41-1.08,10.37-5.2,1.09-2.28,1.94-4.91,2-7.4.23-9.2.09-18.4.09-28.08Z"/>
  <path class="cls-1" d="m425.93,253.86c3.06-8.13,6.01-15.99,8.98-23.84,2.34-6.18,4.61-12.39,7.15-18.49.46-1.11,2.05-2.27,3.22-2.4.93-.1,2.59,1.13,2.98,2.13,5.16,13.56,10.16,27.19,15.17,40.8.21.57.17,1.23.31,2.33-2.79,0-5.36.16-7.89-.09-.89-.09-1.75-1.11-2.5-1.84-.32-.31-.3-.97-.45-1.47-3.27-10.96-3.28-11.02-14.71-10.16-1.15.09-2.65,1.32-3.19,2.42-1.08,2.18-1.9,4.59-2.31,6.99-.66,3.86-2.61,5.02-6.76,3.61Zm17.44-30.94c-.31,0-.62,0-.93,0-1.61,4.39-3.21,8.78-4.95,13.55h10.58c-1.64-4.73-3.17-9.14-4.7-13.55Z"/>
  <path class="cls-1" d="m188.95,318.34c-11.46,0-18.34-7.11-18.36-18.98-.02-11.7,7.9-19.61,19.57-19.55,11.18.05,18.29,7.55,18.26,19.28-.03,11.29-8.07,19.25-19.47,19.25Zm-10.79-18.13c.97,3.33,1.45,7.03,3.08,10.13,3.28,6.24,11.57,6.62,15.38.68,4.6-7.16,4.79-14.93,1.29-22.65-1.57-3.45-4.45-5.27-8.42-5.17-4.09.11-7.1,2.05-8.46,5.74-1.29,3.47-1.86,7.2-2.86,11.26Z"/>
  <path class="cls-1" d="m228.52,248.69c1.21,5.01,1,5.3-3.77,5.32-5.2.02-10.4.13-15.59-.11-1.05-.05-2.92-1.5-2.93-2.32-.18-13.75-.13-27.49-.13-41.58h22.79v4.99c-3.6-.2-7.06-.34-10.5-.6-2.32-.18-3.34.69-3.21,3.09.14,2.59.14,5.2,0,7.78-.13,2.44.99,3.17,3.26,3.09,3.22-.11,6.45-.03,9.99-.03v4.49c-3.29,0-6.61.12-9.92-.04-2.56-.12-3.47.86-3.34,3.39.17,3.37.13,6.75.01,10.12-.08,2.18.72,3.09,2.93,2.94,3.48-.24,6.96-.37,10.42-.54Z"/>
  <path class="cls-1" d="m353.01,317.39q-8.36,1.01-11.81-5.56c-1.74-3.3-3.49-6.6-5.23-9.9-.35.04-.7.08-1.05.12,0,1.93.53,4.06-.11,5.75-1.25,3.31,3.88,9.15-3.62,9.91-3.88.39-3.91.09-3.91-10.05,0-7.4,0-14.79,0-22.19,0-1.39,0-2.78,0-4.4,5.8,0,11.11-.32,16.36.11,3.52.29,5.79,2.9,6.46,6.42.75,3.98-.29,7.48-3.67,10-.92.69-1.99,1.18-3.57,2.1,3.32,5.79,6.62,11.55,10.14,17.68Zm-17.82-33.21v13.52c4.97.51,7.18-1.58,7.36-6.69.19-5.33-1.49-7.05-7.36-6.83Z"/>
  <path class="cls-1" d="m154.7,299.72c3.46,5.94,6.7,11.52,9.96,17.13-5.68,2.21-8.2,1.33-10.74-3.51-2.02-3.83-4.08-7.64-6.13-11.46-.34.08-.68.16-1.02.23,0,3.29,0,6.59,0,9.88,0,6.38-.29,6.6-7.22,5.29v-36.26c5.42,0,10.62-.31,15.76.1,3.7.3,6.07,2.94,6.72,6.63.71,4-.4,7.49-3.81,9.97-.93.67-1.99,1.15-3.51,2.01Zm-7.91-1.99c3.74.77,6.09-.38,7.1-3.55,1.05-3.29,1.43-6.72-1.49-9.32-2-1.78-5.47-1.08-5.56.95-.18,3.96-.05,7.93-.05,11.92Z"/>
  <path class="cls-1" d="m150.91,210.22c.48-.24.59-.34.71-.35,9.04-1.08,8.99-1.06,11.8,7.53,2.52,7.69,5.17,15.34,8.72,23.03,1.22-3.2,2.52-6.36,3.65-9.59,2.01-5.76,4.15-11.49,5.77-17.36,1-3.64,2.79-4.59,6.54-3.27-.79,2.15-1.55,4.29-2.35,6.41-4.33,11.54-8.69,23.07-12.96,34.64-.67,1.82-1.12,3.19-3.59,3.2-2.44.02-3.04-1.28-3.68-3.1-4.83-13.68-9.7-27.34-14.61-41.15Z"/>
  <path class="cls-1" d="m297.42,244.5c.53.99.97,2.05,1.6,2.97,1.94,2.84,4.84,4.48,8.03,3.44,2.14-.7,4.53-2.68,5.43-4.7,1.43-3.21-.44-6.05-3.3-7.92-2.5-1.63-5.13-3.07-7.69-4.61-6.59-3.96-8.57-12.86-4.33-19.41,3.75-5.79,13.9-7.87,19.55-3.85,3.43,2.44-.28,4.72-.1,8.26-1.4-1.87-2.07-2.86-2.84-3.78-2.48-2.95-7.15-3.37-9.77-.93-2.78,2.59-2.61,6.9.77,9.54,2.75,2.15,5.83,3.89,8.87,5.65,5.1,2.95,7.05,7.46,6.58,13.1-.47,5.76-3.61,10.09-9.04,11.49-4.08,1.05-8.64.6-12.95.28-2.77-.21-3.95-2.1-2.73-5.04.58-1.39.7-2.96,1.03-4.45.3-.01.59-.02.89-.03Z"/>
  <path class="cls-1" d="m71.82,291.89c0,8.29.09,15.29-.08,22.28-.03,1.18-1.02,3.21-1.79,3.33-2.71.42-2.12-1.93-2.12-3.48-.04-9.6-.08-19.21.04-28.81.02-1.44.9-2.88,1.38-4.31,1.79.71,4.13.93,5.29,2.22,5.93,6.54,11.56,13.34,17.28,20.07.49.57.85,1.26,1.26,1.89l1.06-.46c0-6.15-.13-12.3.08-18.44.06-1.83-1.57-5.22,1.96-5.15,3.45.07,1.78,3.43,1.82,5.26.18,8.95.08,17.91.08,26.86,0,1.39,0,2.79,0,3.99-3.16,1.39-4.78,0-6.4-1.97-5.45-6.61-11-13.14-16.53-19.68-.79-.94-1.68-1.81-3.33-3.58Z"/>
  <path class="cls-1" d="m478.78,305.6c0-4.94,0-8.74,0-12.55,0-3.37-.11-6.75.12-10.11.05-.73,1.32-1.38,2.03-2.07.58.67,1.47,1.27,1.68,2.04.3,1.09.1,2.32.1,3.48,0,8.95.01,17.9,0,26.86,0,1.39-.13,2.78-.2,3.99-3.34,1.36-4.89-.55-6.52-2.52-6.11-7.37-12.28-14.71-19.26-21.8v24.15c-3.27,1.24-4.41.42-4.38-2.68.1-9.6-.03-19.2.1-28.8.02-1.58.91-3.14,1.4-4.72,1.89.8,4.31,1.12,5.57,2.49,5.52,6.02,10.71,12.36,16.02,18.57.8.94,1.67,1.83,3.34,3.65Z"/>
  <path class="cls-1" d="m522.14,317.98c-2.5,0-4.69.15-6.84-.08-.8-.08-1.67-.93-2.19-1.66-.5-.7-.57-1.7-.85-2.56-2.86-8.59-.9-6.65-9.3-7.05-3.09-.15-4.97.6-5.45,3.9-.2,1.39-1.05,2.68-1.24,4.07-.46,3.4-2.38,3.87-5.62,2.86.33-1.12.57-2.2.95-3.23,3.9-10.3,7.77-20.61,11.84-30.84.5-1.25,2.03-2.64,3.27-2.85.79-.13,2.37,1.63,2.83,2.84,4.07,10.65,7.97,21.36,11.91,32.05.25.68.39,1.41.69,2.53Zm-13.53-15.12c-1.34-3.75-2.53-7.1-4.06-11.39-1.62,4.38-2.86,7.71-4.22,11.39h8.28Z"/>
  <path class="cls-1" d="m444.43,317.77c-2.1,0-3.52-.14-4.91.03-2.54.31-3.66-.83-4.37-3.2-2.5-8.4-2.57-8.48-11.22-7.87-1.25.09-2.79,1.38-3.49,2.54-.97,1.62-1.42,3.61-1.83,5.5-.61,2.81-2.18,3.57-5.15,2.59.23-.91.37-1.87.7-2.76,3.93-10.42,7.83-20.86,11.9-31.23.47-1.2,1.87-2.78,2.89-2.82.98-.04,2.52,1.51,2.97,2.68,3.95,10.28,7.72,20.62,11.52,30.95.35.94.54,1.94.99,3.58Zm-13.05-14.9c-1.42-3.95-2.65-7.35-3.87-10.76l-.91.04c-1.24,3.45-2.47,6.89-3.85,10.72h8.63Z"/>
  <path class="cls-1" d="m245.43,317.75c-2.64,0-4.7.2-6.69-.09-.88-.13-1.65-1.23-2.39-1.96-.24-.24-.25-.72-.37-1.09-3.22-9.78-.68-7.66-10.93-8.02-2.32-.08-3.67.6-4.17,2.97-.37,1.77-1.21,3.44-1.58,5.21-.65,3.16-2.44,3.59-5.43,2.42,4.01-10.62,7.98-21.16,11.96-31.69.32-.85.49-1.83,1.03-2.5.79-.99,1.84-2.43,2.81-2.44.95-.01,2.39,1.31,2.82,2.36,2.2,5.41,4.15,10.91,6.17,16.39,2.19,5.93,4.35,11.87,6.76,18.45Zm-13.33-14.9c-1.43-3.97-2.66-7.4-4.29-11.94-1.71,4.62-2.98,8.08-4.4,11.94h8.7Z"/>
  <path class="cls-1" d="m339.93,209.95h8.64v44.13h-8.64v-44.13Z"/>
  <path class="cls-1" d="m123.07,254.41v-44.47h8.89c0,4.54,0,8.91,0,13.28,0,8.93-.18,17.87.09,26.8.11,3.66-1.09,4.92-4.59,4.42-1.26-.18-2.57-.03-4.38-.03Z"/>
  <path class="cls-1" d="m307.55,285.03v10.95h10.57v4.16h-10.44v13.41c3.51-.17,7.05-.33,10.85-.51v4.19h-18.39v-36.07h18.38v3.87h-10.97Z"/>
  <path class="cls-1" d="m58.33,313c.13,1.02.25,1.52.25,2.02,0,.64-.1,1.27-.18,2.19h-18.64c0-5.52,0-10.93,0-16.33,0-5.71-.1-11.42.1-17.11.03-1,1.27-2.76,2.01-2.8,5.42-.24,10.85-.13,16.5-.13v4.43c-2.02-.12-3.79-.23-5.57-.33q-5.44-.32-5.44,4.95c0,1.92,0,3.85,0,6.05h10.73v4.23h-10.68c0,4-.13,7.83.13,11.63.04.64,1.76,1.61,2.74,1.65,2.56.09,5.13-.25,8.06-.45Z"/>
  <path class="cls-1" d="m29.05,287.31c-.7-.6-1.35-1.19-2.04-1.74-4.77-3.82-10.98-3.13-14.21,2.06-4.46,7.16-4.53,14.82-.75,22.25,2.48,4.88,8.31,6.49,13.51,4.3,1.29-.54,2.49-1.3,3.94-2.07.92,2.82.05,4.39-2.62,5.31-8.44,2.91-17.94.13-22.67-6.72-4.54-6.59-3.82-18.2,1.52-24.46,5.11-5.99,15.6-8.25,22.91-4.93,2.73,1.24,2.77,1.75.4,6.02Z"/>
  <path class="cls-1" d="m405.88,287.52c-9.3-7.37-17.84-4.13-19.42,7.08-.56,4-.44,8.4.66,12.25,2.26,7.95,9.52,10.43,16.7,6.35.64-.36,1.26-.74,2.06-1.22.97,2.89.09,4.4-2.42,5.34-8,3.02-17.73.4-22.52-6.15-4.83-6.6-4.33-18.44,1.04-24.81,5.17-6.14,15.93-8.39,23.24-5.01,3.72,1.72,1,3.72.65,6.16Z"/>
  <path class="cls-1" d="m106.31,285.23v-4.12h25.09v3.88h-8.22c-.1,1.36-.28,2.71-.28,4.06-.03,8.44-.12,16.87.05,25.3.06,2.84-1.02,3.53-3.64,3.49-2.51-.05-4.17-.19-4.09-3.47.19-8.3.07-16.61.06-24.91q0-4.89-5.01-4.47c-1.16.1-2.32.15-3.95.25Z"/>
  <path class="cls-1" d="m368.88,280.82c0,12.02,0,23.3,0,34.58,0,3.28-2.54,2.18-4.27,2.36-1.89.2-3.25-.17-3.23-2.63.08-10.52.06-21.04,0-31.57-.01-1.99.7-2.88,2.72-2.76,1.4.08,2.81.02,4.78.02Z"/>
</svg>